<?xml version="1.0" encoding="utf-8"?>
<!-- Generator: Adobe Illustrator 26.0.0, SVG Export Plug-In . SVG Version: 6.00 Build 0)  -->
<svg version="1.1"
	 id="svg28364" xmlns:inkscape="http://www.inkscape.org/namespaces/inkscape" xmlns:sodipodi="http://sodipodi.sourceforge.net/DTD/sodipodi-0.dtd" xmlns:svg="http://www.w3.org/2000/svg"
	 xmlns="http://www.w3.org/2000/svg" xmlns:xlink="http://www.w3.org/1999/xlink" x="0px" y="0px" viewBox="0 0 360 100"
	 style="enable-background:new 0 0 360 100;" xml:space="preserve">
<style type="text/css">
	.st0{fill:none;}
	.st1{fill:#FEFE9F;}
	.st2{fill:#FEFE5F;}
	.st3{fill:#FFFB00;}
	.st4{fill:#D0D000;}
	.st5{fill:#A1A100;}
	.st6{fill:#5B5B00;}
	.st7{fill:#010100;}
	.st8{enable-background:new    ;}
</style>
<sodipodi:namedview  bordercolor="#666666" borderopacity="1.0" id="namedview28366" inkscape:current-layer="layer1" inkscape:cx="122.3135" inkscape:cy="69.27348" inkscape:document-units="mm" inkscape:pagecheckerboard="0" inkscape:pageopacity="0.0" inkscape:pageshadow="2" inkscape:window-height="1521" inkscape:window-maximized="0" inkscape:window-width="3824" inkscape:window-x="0" inkscape:window-y="0" inkscape:zoom="3.1108586" pagecolor="#ffffff" showgrid="false">
	</sodipodi:namedview>
<image style="overflow:visible;enable-background:new    ;" width="720" height="200" id="image28376" xlink:href="B65717C0.png"  transform="matrix(0.5 0 0 0.5 3.051758e-05 0)">
</image>
<g id="g28526">
	<path id="path28542" class="st0" d="M0,50V0h180h180v50v50H180H0V50z"/>
	<path id="path28540" class="st1" d="M42,99c-1.8-0.2-5.1-1.1-7.5-1.9C18,91,6.2,76,4.1,58.2C0.8,31.7,13,10.4,36,2.4l4.8-1.6H180
		h139.2l4.8,1.6c20.3,7.1,32.5,24.9,32.5,47.6S344.3,90.5,324,97.6l-4.8,1.6l-137,0.1C106.9,99.3,43.8,99.2,42,99L42,99z"/>
	<path id="path28538" class="st2" d="M42.7,98.8C25.1,95.6,10.8,82.5,6,65.4C4.5,60,3.9,51.2,4.5,44.1c1.1-12.3,5-21.1,13-29.3
		c6.1-6.3,13.7-10.7,22.1-13l4.2-1.1H180h136.2l4.2,1.1c16.3,4.3,29.1,16.8,33.5,32.7c1.5,5.4,2.1,14.3,1.5,21.3
		c-1.1,12.3-5,21.1-13,29.3c-6,6.2-13.4,10.6-21.8,13l-4,1.1l-135.2,0.1C72.1,99.4,45.6,99.3,42.7,98.8L42.7,98.8z"/>
	<path id="path28536" class="st3" d="M47.5,99.1c-0.4-0.2-2-0.6-3.6-0.7c-7.2-0.8-16.9-5.2-23.2-10.6c-6.1-5.2-11.3-13.4-14-21.9
		c-1.4-4.5-1.4-5-1.4-15.9s0-11.4,1.4-15.7c5.4-17.6,19-29.5,37.6-32.9c5.1-0.9,266.4-0.9,271.5,0c18.5,3.3,32.2,15.2,37.6,32.8
		c1.3,4.3,1.4,4.8,1.4,15.7s0,11.4-1.4,15.7c-5.5,17.6-19.1,29.5-37.6,32.8c-2.7,0.5-32.6,0.7-135.5,0.8
		C107.7,99.4,47.9,99.3,47.5,99.1L47.5,99.1z"/>
	
		<path id="path28534" sodipodi:nodetypes="csssssssssssccccccssssssssssssssssscsssscsccssssssssssssssssssssssssssssssssscsscssssssssssscsccsssssssssscssssssssssssssssscssssssssssssssssssccsssscsssssss" class="st4" d="
		M46,92.9c-13.5-1.6-25.4-10-31.3-22.2c-3.6-7.4-4-9.5-4-20.7s0.4-13.4,4-20.7c3.8-7.9,10.6-14.7,18.5-18.5c4.6-2.2,8-3.1,13.5-3.8
		C52.9,6.3,307,6.3,313.2,7c8,0.9,14.3,3.4,20.5,8.1c6.7,5.1,12.3,13.4,14.6,21.9c1.3,4.7,1.3,21.3,0,26
		c-2.3,8.5-7.9,16.8-14.6,21.9c-6.2,4.7-12.4,7.2-20.5,8.1C307.6,93.6,51.5,93.6,46,92.9L46,92.9z M86.5,33c-1.3-1.2-2.8-1.2-4,0
		c0.6,10-7.5,23.4-0.2,34.9C90,66,91,37.7,86.5,33L86.5,33z M113.9,67.8c1.2-1.3,12.6-31.2,12.6-33.1c0-1.2-1.7-2.7-2.9-2.7
		c-1.7,0-2.7,2.3-7.1,15.3C112.7,58.6,111.8,61,111,61c-0.7,0-1.4-1.5-3.5-7.6c-4.6-13.9-7-20.1-7.9-20.7c-2.1-1.6-5,0.3-4.4,2.9
		c0.8,3.5,11.4,31.3,12.4,32.3C109.1,69.5,112.4,69.4,113.9,67.8L113.9,67.8z M190.9,68.4c0.4-0.4,0.6-3.4,0.6-10.4
		c0-7.1,0.2-10,0.6-10.6c0.3-0.5,1.5-0.9,2.6-1c3.9-0.3,3.4-3.4-0.5-3.4c-2.2,0-2.8-1.2-2.2-4s1.2-3.2,4.4-3.2
		c2.1,0,2.9-0.2,3.3-0.9c0.9-1.4-0.6-2.4-4-2.7s-6.7,0.4-7.9,1.8c-0.5,0.6-1.1,2.6-1.5,4.9l-0.6,3.9l-1.9,0.3
		c-3.7,0.5-3.6,3.3,0.1,3.6l1.8,0.2L186,57c0.2,7.7,0.4,10.5,0.9,11.1C187.7,69.1,190,69.3,190.9,68.4L190.9,68.4z M219.3,68.1
		c2.6-1.2,4.4-2.9,5.8-5.6c1-1.8,1.2-2.9,1.1-6.7c0-4.9-0.6-6.7-3.2-9.4c-2.5-2.7-4.9-3.6-9.8-3.6c-4.8,0-7.3,0.8-9.6,3.3
		c-3,3.2-4.2,9.6-2.7,14.7c0.9,3,4.4,6.7,7,7.6C210.9,69.3,217,69.1,219.3,68.1z M210,64.6c-2.7-1.5-4.1-4.5-4.1-8.6
		c0-4.6,1.4-7.6,4.3-9c1.2-0.6,2.6-1,3.3-1c2,0,4.6,1.6,6,3.7c1.2,1.8,1.3,2.5,1.3,6c0,4.4-0.8,6.6-3.3,8.4
		C215.5,65.6,212.1,65.8,210,64.6L210,64.6z M238.2,67.9c0.6-0.9,0.8-2.6,0.8-8.3c0-6.2,0.1-7.5,1-9.3c1.2-2.5,3.2-3.8,5.9-3.8
		c4.5,0,5.6,2.9,5.6,14.5c0,7.4,0.2,8,2.5,8c2.5,0,2.7-0.9,2.7-10.7c0-10.3-0.4-12.1-3.1-14.1c-3.2-2.4-9.9-2-12.4,0.9
		c-1.3,1.4-2.4,1.2-3.2-0.7c-0.8-1.7-2.5-2.4-3.8-1.3c-0.6,0.5-0.7,2.7-0.7,12.3c0,7.1,0.2,12.1,0.5,12.7
		C234.7,69.4,237.2,69.3,238.2,67.9L238.2,67.9z M280.7,67.1c1.2-0.9,2.5-1.6,2.8-1.6s0.9,0.8,1.3,1.7c0.6,1.5,1,1.7,2.2,1.7
		c1,0,1.7-0.3,2-1c0.3-0.6,0.5-7.1,0.5-17.7c0-14.6-0.1-16.8-0.8-17.5c-1-1-2.2-1-3.3,0c-0.8,0.7-0.9,1.6-0.9,6.8
		c0,6.7-0.4,7.4-3,5.3c-2.2-1.8-4.7-2.5-8.1-2.2c-4,0.4-6.4,2.1-8.2,5.8c-1.8,3.8-1.9,10-0.2,13.8c2.3,5.1,5,6.8,10.2,6.6
		C277.9,68.7,278.8,68.5,280.7,67.1L280.7,67.1z M274.7,65c-5.4-1.6-7.3-11.4-3.1-16.2c3.2-3.6,8.1-3.2,10.8,0.8
		c1.9,2.9,2.2,8.3,0.6,11.4C281.1,64.5,278.1,66,274.7,65z M315,67.7c2.4-1.4,3.7-3.3,3.9-6.1c0.4-4.1-2-6.1-9.7-8.2
		c-4.6-1.3-6.4-2.1-6.9-3.2c-1-2.7,1-4.7,4.7-4.7c2.2,0,2.7,0.2,4.9,2.2c2.6,2.3,3.8,2.7,4.9,1.6c1.9-1.9-1.1-5.4-5.6-6.4
		c-8-1.8-14.3,1.3-14.3,7c0,1.8,0.3,2.4,1.7,3.7c1.7,1.6,2.7,2,8.7,3.8c5.4,1.6,7,3.3,5.9,6.3c-0.9,2.2-6.7,3-9.5,1.3
		c-0.9-0.5-2-1.7-2.5-2.5c-1.7-2.9-5.1-2.4-4.5,0.7c0.4,1.9,2,3.7,4.5,4.9C304.1,69.4,312.4,69.2,315,67.7L315,67.7z M63,67.7
		c3.6-1.1,7.1-4.4,8.6-8.1c0.9-2.4,1.1-3.8,1.1-9.1c0-5.7-0.1-6.5-1.3-9c-1.8-3.8-4-6.1-7.1-7.5c-2.4-1.1-3.4-1.2-11.3-1.2
		c-8.5,0-8.7,0-9.6,1.1s-1,2.1-1,16.9c0,15,0,15.7,1,16.7c0.9,0.9,1.7,1,8.9,1C58.2,68.5,61,68.3,63,67.7L63,67.7z M49.1,63.4
		c-0.4-0.4-0.6-4-0.6-12.7c0-14.8-0.4-14,6.2-13.5c7.8,0.6,10.6,2.8,11.9,9.2c1.4,7.5-1.1,14.9-5.9,16.9
		C58.6,64.2,50,64.3,49.1,63.4L49.1,63.4z M156.4,66.9c4.4-2.3,6.9-6.5,7.6-12.8c0.9-7.7-0.9-14.1-5-17.8c-3.4-3.1-5.6-3.6-15.3-3.6
		c-7.1,0-8.2,0.1-9,0.9c-0.8,0.8-0.9,2.2-1.1,15c-0.1,7.8,0,15.1,0.2,16.2c0.5,3.7,0.7,3.7,11,3.5C153.4,68.2,153.8,68.2,156.4,66.9
		z M140.3,63.7c-0.2-0.2-0.3-6.1-0.3-13.2v-13l1.3-0.3c1.6-0.4,8.7,0.2,10.6,0.9c1.9,0.7,3.5,2.3,4.8,4.7c0.9,1.7,1.1,2.9,1.1,7.5
		c0,5.2-0.1,5.7-1.5,8.5C154.1,63,152,64,145.5,64C142.8,64,140.5,63.9,140.3,63.7L140.3,63.7z"/>
	<path id="path28532" class="st5" d="M45,92.5C29.9,90.3,17.2,79.2,12.4,64c-1.1-3.4-1.2-4.6-1.2-14s0.1-10.6,1.2-14
		c4.9-15.4,17.4-26.2,33-28.5C50,6.8,310,6.8,314.6,7.5c15.6,2.3,28.1,13.1,32.9,28.5c1.1,3.4,1.2,4.6,1.2,14s-0.1,10.6-1.2,14
		c-4.8,15.4-17.3,26.3-32.9,28.5C310.5,93.1,49.1,93.1,45,92.5L45,92.5z M87,68.5c1-1,1-1.7,1-17.8V34l-1.2-1.2
		c-1.5-1.5-2.8-1.6-4.3-0.3l-1.2,1l-0.1,16.2c-0.1,8.9,0,16.7,0.1,17.3C81.9,69.5,85.1,70.4,87,68.5L87,68.5z M114.1,68.2
		c1.1-1.1,8-18.5,12-30.4c1.1-3.4,0.8-4.9-1.4-5.9c-1.1-0.5-1.5-0.4-2.6,0.4s-2.1,3.3-5.9,14.5c-2.8,8.1-4.8,13.5-5.2,13.5
		c-0.4,0-2.5-5.3-5.3-13.5c-4.6-13.5-5.5-15.3-7.7-15.3c-1.7,0-3.1,1.5-3.1,3.3c0,1,2.4,8.3,5.5,16.8c6.1,16.8,6.8,17.8,10.4,17.8
		C112.3,69.5,113.2,69.2,114.1,68.2L114.1,68.2z M191.1,68.7c0.8-0.7,0.9-1.8,0.9-10.5c0-5.3,0.1-10,0.3-10.4
		c0.2-0.5,0.9-0.8,1.8-0.8c1.8,0,3.2-0.7,3.6-1.7c0.5-1.2-1.4-2.8-3.4-2.8c-1.9,0-2.6-1.1-2-3.4c0.6-2.4,1.7-3.1,4.6-3.1
		c2.1,0,2.8-0.2,3.2-1c0.9-1.7-0.8-3.1-4.2-3.4c-6.2-0.5-9.7,2-9.7,6.7c0,2.8-0.7,4.1-2.2,4.1c-1.4,0-3.3,1.3-3.3,2.2s2,2.2,3.3,2.2
		c0.6,0,1.4,0.4,1.6,1c0.3,0.6,0.5,4.8,0.5,10.3c0,8,0.1,9.5,0.8,10.3C187.9,69.7,189.9,69.8,191.1,68.7L191.1,68.7z M218.6,68.8
		c4.6-1.6,7.7-6.1,8.2-11.7c0.9-10.3-7.9-17.4-18-14.4c-5.8,1.7-8.8,6.2-8.8,13c0,6.3,2.2,10.2,7.2,12.6
		C210.1,69.7,215.5,69.9,218.6,68.8z M209.9,64.1c-2.3-1.5-3.6-4.4-3.6-8.4c0-4.1,1-6.3,3.7-8.1c3-2,7.1-1,9.1,2.2
		c1.6,2.6,1.9,7.8,0.5,10.8C217.9,64.6,213.3,66.2,209.9,64.1L209.9,64.1z M237.9,69.1c1.2-0.7,1.6-3.7,1.6-10.5
		c0-7.2,0.4-8.6,2.8-10.6c1.7-1.3,5.1-1.4,6.7-0.2c1.6,1.3,2,3.9,2,12.1c0,5.8,0.2,7.5,0.8,8.4c1,1.4,3.2,1.5,4.4,0.2
		c0.8-0.8,0.8-2.1,0.7-11.2c-0.2-11.7-0.3-12.1-4.4-14.2c-3.6-1.8-9.3-1.1-11.4,1.5c-0.9,1.1-1.9,1-2.3-0.2
		c-0.8-2.4-3.1-3.2-4.8-1.7c-0.8,0.8-0.9,1.8-0.9,12.6c0,9.9,0.1,12,0.8,12.9C234.6,69.5,236.6,69.9,237.9,69.1L237.9,69.1z
		 M280.7,67.6c1.3-0.9,2.4-1.6,2.6-1.6s0.7,0.7,1.1,1.6c0.6,1.2,1.1,1.6,2.3,1.8c3.1,0.3,3.2-0.1,3.2-19c0-16.2,0-16.9-1-17.9
		c-1.2-1.2-2.4-1.3-3.8-0.3c-0.8,0.6-1,1.5-1.1,6.6c-0.1,3.3-0.3,6.1-0.5,6.3s-1.1-0.2-2.1-0.9c-5.2-3.9-12.9-2.5-16.2,2.9
		c-1.3,2.1-1.5,3-1.7,7.1c-0.2,5.6,0.7,8.9,3.3,11.9c2.5,2.7,4.1,3.4,8.2,3.2C277.9,69.2,278.8,69,280.7,67.6z M274,64.1
		c-3.4-1.8-5.1-6.4-4.1-11c1.4-6,6.8-8.4,10.7-4.8c2,1.9,2.9,4.1,2.9,7.4C283.5,62.5,278.8,66.6,274,64.1L274,64.1z M313.6,68.7
		c5.9-2.1,7.8-8.5,3.7-12.1c-1.8-1.5-3.6-2.3-9.6-4.1c-4-1.2-5.2-2-5.2-3.8c0-1.7,1.8-2.7,4.6-2.7c2.1,0,2.7,0.3,4.9,2.2
		c2.7,2.4,3.9,2.7,5.2,1.5c2.1-2.1-0.4-5.7-5.1-7c-5.4-1.6-12.4-0.1-14.4,3.1c-1.1,1.7-1.4,5.2-0.6,6.7c1,1.9,3.6,3.4,8.8,5
		c2.6,0.8,5.3,1.8,5.9,2.3c2.3,1.6,0.7,5.6-2.3,5.8c-4,0.2-6.1-0.7-8-3.4c-1.3-1.9-2.6-2.5-4-1.7c-3.3,1.7-0.3,7,4.8,8.5
		C304.7,69.7,311.2,69.6,313.6,68.7L313.6,68.7z M65.1,67.3c5-2.5,7.7-7.2,8.2-14.6c0.6-8.9-2.3-15.8-8.1-18.8
		c-3.9-2-20.2-2.4-22-0.6c-0.4,0.4-0.9,1.2-1,1.8c-0.2,0.6-0.2,8-0.1,16.5L42.2,67l1.2,1c1.2,0.9,1.8,1,10,0.8
		C61.9,68.8,62.4,68.7,65.1,67.3z M49.3,63.2C49.2,63,49,57.4,49,50.7c0-10.3,0.1-12.2,0.8-12.7c1.2-1,9.3-0.3,11.6,1
		c3.4,1.9,5.1,5.7,5.1,11.4c0,6-2.3,11-5.8,12.4C59,63.5,50,63.8,49.3,63.2L49.3,63.2z M155.8,67.6c3.4-1.6,5.4-3.6,7.1-7.3
		c1.3-2.9,1.4-3.5,1.4-9.8c0-8.2-0.8-10.6-5-14.5c-3.5-3.2-5.7-3.7-15.8-3.8c-7,0-7.9,0.1-8.9,0.9c-1,0.9-1.1,1.3-1.1,17.4
		c0,16,0,16.5,1,17.5s1.5,1,9.9,0.9C152.4,68.8,153.5,68.6,155.8,67.6L155.8,67.6z M140.3,62.4c-0.2-0.6-0.3-6.1-0.3-12.2
		c0-8.5,0.2-11.2,0.7-11.9c0.6-0.8,1.2-0.9,5.2-0.7c6.9,0.4,9.8,2.3,11.2,7.6c0.9,3.2,0.3,10.7-0.9,13c-2.2,4.3-4.3,5.3-10.9,5.3
		C140.9,63.5,140.6,63.4,140.3,62.4L140.3,62.4z"/>
	
		<path id="path28530" sodipodi:nodetypes="cssssscssssscccsssscscssssssssssssssscssssssscsssscssssssscsssssssssccsssssscssscsscccscsssssssssccssscsssssssssssssscsssssssccsscccsssccscsscssscsssscssssss" class="st6" d="
		M44.1,91.9c-10.7-1.8-20.8-8.6-26.7-18c-4.5-7.1-5.9-12.9-5.9-24s1.4-16.9,5.9-24C22.7,17.7,31.2,11.4,41,8.7
		c3.1-0.9,9.4-0.9,139-0.9s135.9,0,139,0.9c9.8,2.7,18.3,9,23.6,17.4c4.5,7.1,5.9,12.9,5.9,24s-1.4,16.9-5.9,24
		c-5.2,8.2-13.5,14.4-23.4,17.4c-2.9,0.9-9.6,0.9-137.7,1C105.5,92.4,45.6,92.2,44.1,91.9L44.1,91.9z M87.1,69l1.2-1V50.8
		c0-16.3-0.1-17.3-1-18.3c-1.3-1.4-4.3-1.4-5.6,0c-0.9,1-1,2.1-1.1,16.6c-0.1,8.6,0,16.3,0.2,17.2C81.4,69.7,84.6,71.1,87.1,69
		L87.1,69z M113.4,69.3c0.8-0.4,1.8-1.5,2.2-2.4c1.1-2.2,11.1-29.2,11.6-31.2c0.5-2.2-1.2-4.2-3.4-4.2c-3,0-2.9-0.2-8.1,15.5
		c-2.5,7.6-4.3,12.3-4.7,12.3c-0.4,0-2.3-5-5-12.9c-2.4-7.1-4.8-13.3-5.3-13.9c-1.1-1.2-4.1-1.3-5.3-0.2c-0.5,0.5-0.9,1.5-0.9,2.5
		c0,1.3,7.1,21.5,10.8,30.6C106.9,69.4,110.2,71,113.4,69.3L113.4,69.3z M191.3,68.9c0.9-0.9,1-2.1,1.2-11.1l0.2-10.1l1.8-0.3
		c2.3-0.4,3.4-1.3,3.4-2.7s-0.6-1.8-3.2-2.5c-1.7-0.4-2-0.8-2.2-1.9c-0.1-0.8,0.2-1.9,0.6-2.6c0.7-1,1.2-1.2,3.4-1.2
		c2.9,0,3.8-0.6,3.8-2.3c0-1.9-2.1-2.8-6.2-2.8c-6,0-8.2,1.9-8.8,7.3c-0.3,3-0.3,3.1-2,3.5c-2.3,0.6-3,1.2-3,2.6
		c0,1.4,1,2.3,3.1,2.7l1.6,0.3l0.1,10c0.1,9.4,0.2,10,1.2,11.1C187.9,70.3,190,70.3,191.3,68.9L191.3,68.9z M218.3,69.3
		c3.3-1,5.9-3.2,7.5-6.6c1.8-3.7,1.9-9.6,0.4-13.2c-2.3-5.1-6.6-7.7-12.9-7.7c-4.5,0-6.6,0.7-9.4,3.2c-3.2,2.9-4.1,5-4.1,10.7
		c0,5.5,0.5,7.1,3.4,10.2C206.8,69.7,212.5,71,218.3,69.3L218.3,69.3z M209.4,63c-2.6-2.3-3.5-6.4-2.3-10.7c1.7-6.3,9.2-7.3,12-1.6
		c2.1,4.3,0.8,11.3-2.4,13C214.1,65,211.3,64.7,209.4,63L209.4,63z M238.4,69.1c0.8-0.8,1-2,1.2-9.3s0.3-8.5,1.2-9.7
		c1.4-1.9,4.3-3.3,6.2-2.9c2.8,0.6,3.2,2,3.5,11.8c0.2,7.8,0.4,9,1.2,9.9c1.2,1.4,3.5,1.4,4.8,0c1-1,1-1.7,1-10.6s-0.1-9.7-1.1-11.8
		c-2.7-5.3-9.7-6.5-14.8-2.6c-1.6,1.2-1.7,1.2-2.2,0.4c-1.7-3-3.6-3.5-5.6-1.5l-1.2,1.2v11.7c0,11.1,0.1,11.8,1,13
		C234.8,70.3,237.1,70.4,238.4,69.1L238.4,69.1z M279,69c1.2-0.6,2.7-1.4,3.2-1.9c0.7-0.6,1-0.7,1.2-0.2c1,3,4.2,4.1,5.9,2.1
		c0.9-1,1-2.1,1.1-17.9c0.1-19.3,0.2-19.2-3.3-19.5c-2-0.1-2.2-0.1-2.9,1.6c-0.5,1.1-0.7,3.5-0.7,6.5c0,5.1-0.2,5.4-2.4,3.8
		c-2-1.4-5.4-2.2-8-1.8c-5,0.7-8.4,3.9-9.6,8.8c-0.8,3.5-0.4,9.6,0.9,12.4C267,68.9,273.3,71.5,279,69L279,69z M273.6,63.5
		c-4.2-2.5-4.8-10.6-1.2-14.6c1-1.2,1.9-1.6,3.6-1.8c1.9-0.2,2.5-0.1,3.9,1.2c2.2,1.8,3,4,3,7.7C283,62.7,278.4,66.4,273.6,63.5z
		 M313.3,69.3c6.2-1.8,8.5-8.9,4.3-12.9c-1.9-1.7-2.7-2.1-8.1-3.7c-5.2-1.5-6.5-2.3-6.5-4.1c0-0.9,0.4-1.4,1.8-1.9
		c2.3-1,5-0.3,7,1.8c1.9,2,3.4,2.6,5,2c2.5-0.9,1.9-4.8-1-6.7c-3.7-2.4-11.3-2.9-15.2-0.8c-5,2.6-5.9,8.7-1.8,11.9
		c1.4,1.1,3.7,2,9.1,3.6c2.6,0.8,3.9,1.4,4.5,2.3c0.8,1.2,0.8,1.3-0.2,2.6c-2.3,3.1-6.3,2.7-9.7-0.8c-2.7-2.9-3.8-3.3-5.3-2.3
		c-2.1,1.4-1.2,5.6,1.7,7.5C302.2,70,308.7,70.6,313.3,69.3L313.3,69.3z M62.3,68.7c5.2-1.4,8.5-4.5,10.5-10c0.7-1.9,0.9-4,0.9-8.2
		c-1.4-25.3-32-20.7-32.1,2C41.8,67.7,41.8,68,44.2,69C46.1,69.8,59,69.6,62.3,68.7z M49.6,50.6l0.1-12.4l3.2-0.2
		c5-0.3,8.1,0.6,10.2,2.9c4.5,5,3.5,17.5-1.6,20.9c-1.5,1-2.3,1.1-6.9,1.1h-5.2L49.6,50.6z M155.5,68.2c6.3-2.9,9.5-8.7,9.5-17.4
		c0-8.5-2.9-14.3-8.7-17.4c-1.8-1-3-1.1-11.6-1.2l-9.6-0.2l-1.1,1.4c-1,1.3-1.1,1.8-1.1,17.3c0,10.3,0.2,16.3,0.5,17
		c0.9,1.7,2.4,1.9,11.2,1.8C152,69.2,153.6,69.1,155.5,68.2L155.5,68.2z M140.7,62.4c-0.1-0.3-0.2-5.9-0.1-12.4l0.1-11.7h5
		c5.5,0,7.5,0.7,9.1,3.1c1.6,2.3,2.1,4.6,2.1,9.1c0,6.4-1.5,9.9-5.1,11.8C150.1,63.2,141.1,63.3,140.7,62.4L140.7,62.4z"/>
	<path id="path28528" class="st7" d="M45.2,91.5c-8.9-1.3-17.1-5.7-23.1-12.2c-4.8-5.3-8-11.4-9.4-18.2c-0.9-4.5-0.9-17.7,0-22.2
		c1.4-6.8,4.6-12.9,9.4-18.2c5-5.4,11-9.1,18.7-11.3l4-1.1H180h135.2l4,1.1c7.6,2.2,13.7,5.9,18.7,11.3c4.8,5.3,8,11.4,9.4,18.2
		c0.9,4.5,0.9,17.7,0,22.2c-1.4,6.8-4.6,12.9-9.4,18.2c-4.9,5.3-10.8,9-18.4,11.3l-3.7,1.2l-134,0.1C108.1,91.9,46.6,91.7,45.2,91.5
		L45.2,91.5z M87.7,68.9l1.3-1.6l-0.1-17.1C88.8,34.3,88.7,33,87.8,32c-2.3-2.5-6.4-1.5-7.3,1.8c-0.4,1.2-0.5,7.3-0.4,18L80.3,68
		l1.4,1.2C83.7,71.1,86.1,70.9,87.7,68.9L87.7,68.9z M114.7,68.9c1.3-1.3,2.7-4.5,7.2-16.8c3.1-8.3,5.7-15.9,5.9-16.8
		c0.6-3.8-4.5-6.2-7-3.3c-0.6,0.7-2.9,6.7-5.3,13.8c-2.3,6.9-4.3,12.6-4.5,12.6c-0.1,0-2-5.2-4.2-11.6s-4.4-12.5-4.9-13.5
		C99.8,29,94,30.2,94,34.9c0,1.1,2.2,7.9,5.7,17.4c6.5,17.5,6.9,18.2,11.1,18.2C112.7,70.5,113.4,70.2,114.7,68.9L114.7,68.9z
		 M191.6,69.5c1.2-0.9,1.2-1.2,1.4-11.1l0.2-10.2l1.9-0.3c2.3-0.4,3.5-1.4,3.5-3.2s-1.1-2.8-3.6-3.1c-2.1-0.3-2.1-0.3-1.8-2
		c0.2-1,0.4-1.9,0.6-2.1c0.2-0.2,1.7-0.4,3.4-0.6c2.6-0.2,3.2-0.4,3.7-1.4c1.5-3.1-0.9-4.8-6.5-4.8c-6.4,0-8.7,1.9-9.2,7.4
		c-0.3,3-0.3,3-2.3,3.5c-1.3,0.4-2.3,1-2.7,1.9c-0.7,1.2-0.6,1.4,0.1,2.6c0.5,0.7,1.5,1.4,2.2,1.6c0.8,0.2,1.6,0.4,2,0.5
		c0.5,0.1,0.6,2.6,0.6,10c0,9.7,0,9.8,1.2,11C187.7,70.8,189.9,70.9,191.6,69.5L191.6,69.5z M220.3,69.1c6.7-3.5,9.5-12.4,6.2-20.1
		c-4.8-11.1-22.8-10.5-26.7,0.9c-1,3-1,8.8,0.1,11.8c1,3.1,4.7,6.8,7.7,7.9C210.7,70.8,217.5,70.5,220.3,69.1z M210.5,63.4
		c-2.1-1.1-3.2-3.7-3.2-7.6c0-2.8,0.2-3.9,1.1-5.3c2.4-3.8,7.4-3.9,9.9-0.1c1.1,1.7,1.6,7,0.8,9.4C217.8,63.3,213.8,65,210.5,63.4z
		 M239,69.2c1.2-1.2,1.2-1.6,1.4-9.1c0.1-4.3,0.4-8.5,0.7-9.2c0.8-1.9,2.3-2.9,4.8-2.9c3.5,0,3.9,1,4.2,11.6c0.2,8.7,0.3,9,1.4,9.9
		c1.6,1.3,3.9,1.2,5.3-0.3c1.2-1.2,1.2-1.3,1.2-11.1c0-8.6-0.1-10.2-1-12c-1.4-3-4.2-4.7-8.1-5c-2.8-0.2-3.5-0.1-6,1.3l-2.9,1.5
		l-1.5-1.5c-1.8-1.8-3.7-1.9-5.3-0.2l-1.3,1.3L232,56c0.1,12.5,0.2,12.5,1.3,13.5C235.1,70.9,237.6,70.8,239,69.2L239,69.2z
		 M279.3,69.5c1.1-0.5,2.2-1.2,2.4-1.5c0.6-0.9,1.5-0.6,2,0.6c1.1,2.5,5.3,2.4,6.6-0.1c0.5-0.9,0.6-5.6,0.6-18.2V33.4l-1.5-1.5
		c-1.8-1.8-3-1.8-4.9-0.3c-1.4,1.2-1.4,1.4-1.6,6.7l-0.2,5.5l-2.2-1.3c-4.6-2.7-10.8-2-14.3,1.7c-3.2,3.3-3.6,4.7-3.6,11.1
		c0,5.3,0.1,6,1.3,8.2c1.6,3,3.5,4.9,5.9,6C272.4,70.8,276.8,70.7,279.3,69.5L279.3,69.5z M274.2,63.2c-2.3-1.2-3.4-3.4-3.4-7.2
		c0-6.7,4-10.3,8.5-7.6c2.1,1.3,3.2,3.8,3.2,7.3c0,3.6-1,6-3.1,7.3C277.4,64.2,276.3,64.2,274.2,63.2L274.2,63.2z M315.3,69.1
		c2.5-1.3,4-3.1,4.7-5.6c1.4-4.8-1.5-8.7-7.7-10.5c-6.9-2-8.6-2.7-8.8-3.6c-0.3-1.5,0.9-2.3,3.3-2.3c1.9,0,2.6,0.3,4.4,2
		c2.7,2.5,4.4,3,6.1,1.7c4.7-3.5-1.9-9.6-10.2-9.6c-5.2,0-9.3,2.2-11.2,5.8c-1.4,2.8,0,7,2.9,8.9c1,0.6,4.1,1.9,6.9,2.7
		s5.3,1.9,5.7,2.3c1.1,1.3,0.4,3-1.5,3.6c-2.9,1-5.2,0.1-7.9-2.8c-2.5-2.8-3.7-3.1-5.6-1.6c-2.2,1.8-1.2,5.7,2.1,8.2
		c2.5,1.8,5,2.4,9.9,2.2C312.2,70.2,313.7,69.9,315.3,69.1L315.3,69.1z M50.1,50.7l0.1-11.9l4.6,0.1c5.5,0.1,7.3,0.9,9.1,4.2
		c1.1,2,1.2,2.8,1.2,7.5c0,5.7-0.7,7.9-3.5,10.5c-1.2,1.1-1.8,1.3-6.6,1.4l-5,0.1L50.1,50.7z M153.7,69.2c5.6-1.5,9.3-5.3,11.1-11.5
		c0.7-2.3,0.8-4.3,0.6-8.6c-0.2-5.1-0.4-5.9-1.8-8.9c-2-4-5.2-7-8.7-8.1c-1.8-0.5-5-0.7-11.2-0.7c-8.6,0-8.7,0-9.9,1.2l-1.2,1.2
		v16.6c0,17.4,0,17.5,2.2,18.8C136.3,70.3,150.1,70.2,153.7,69.2z M141.2,61.9c-0.1-0.3-0.2-5.7-0.1-11.9l0.1-11.2h4.5
		c8.5,0.1,11.1,3.2,10.7,13c-0.2,5.4-1.6,8.5-4.4,9.9C149.8,62.7,141.6,62.9,141.2,61.9L141.2,61.9z"/>
</g>
<path id="path28380" sodipodi:nodetypes="csssscccsssscccc" d="M43.9,92c-3.6-0.6-7.2-1.9-11.4-4.1c-9.8-5.1-17.1-14.2-20-25.2
	c-1.6-5.8-1.6-19.7,0-25.5c3.7-13.7,13.7-24,27.6-28.3l3.8-1.2H180h136.2l3.7,1.2c13.9,4.3,23.9,14.6,27.6,28.3
	c1.6,5.8,1.6,19.7,0,25.5c-3.6,13.6-13.4,23.6-27.3,28.3l-3.5,1.2l-135.2,0.1C107.1,92.4,45.2,92.2,43.9,92L43.9,92z"/>
<g class="st8">
	<path class="st3" d="M55.9,29.8h10.6c2.8,0,5.1,0.3,7.1,0.8c2,0.5,3.8,1.5,5.4,2.9c4.2,3.6,6.3,9,6.3,16.3c0,2.4-0.2,4.6-0.6,6.6
		c-0.4,2-1.1,3.8-1.9,5.4c-0.9,1.6-2,3-3.4,4.3c-1.1,1-2.3,1.7-3.5,2.3c-1.3,0.6-2.6,1-4.1,1.2c-1.5,0.2-3.1,0.4-5,0.4H56.1
		c-1.5,0-2.6-0.2-3.3-0.7c-0.7-0.4-1.2-1.1-1.5-1.9c-0.2-0.8-0.3-1.9-0.3-3.2V34.7c0-1.8,0.4-3,1.2-3.8
		C52.9,30.1,54.2,29.8,55.9,29.8z M59.1,36.2v27.2h6.2c1.3,0,2.4,0,3.2-0.1c0.8-0.1,1.6-0.3,2.4-0.5c0.8-0.3,1.5-0.7,2.1-1.2
		c2.7-2.3,4.1-6.3,4.1-11.9c0-4-0.6-6.9-1.8-8.9c-1.2-2-2.7-3.2-4.4-3.8c-1.8-0.5-3.9-0.8-6.3-0.8H59.1z"/>
	<path class="st3" d="M92.7,65.6V34c0-1.6,0.4-2.9,1.1-3.7c0.7-0.8,1.7-1.2,2.9-1.2c1.2,0,2.2,0.4,3,1.2c0.8,0.8,1.1,2,1.1,3.7v31.6
		c0,1.7-0.4,2.9-1.1,3.7c-0.8,0.8-1.7,1.2-3,1.2c-1.2,0-2.1-0.4-2.9-1.2C93.1,68.4,92.7,67.2,92.7,65.6z"/>
	<path class="st3" d="M115.8,34.4l9.1,26.9l9.1-27.1c0.5-1.4,0.8-2.4,1.1-3c0.2-0.6,0.6-1.1,1.2-1.5c0.5-0.4,1.3-0.7,2.2-0.7
		c0.7,0,1.3,0.2,1.9,0.5c0.6,0.3,1.1,0.8,1.4,1.4s0.5,1.2,0.5,1.7c0,0.4-0.1,0.8-0.2,1.3s-0.2,0.9-0.4,1.4c-0.2,0.4-0.3,0.9-0.5,1.4
		l-9.7,26.2c-0.3,1-0.7,2-1,2.9c-0.3,0.9-0.7,1.7-1.2,2.4c-0.5,0.7-1.1,1.2-1.8,1.7c-0.8,0.4-1.7,0.7-2.8,0.7s-2-0.2-2.8-0.6
		c-0.8-0.4-1.4-1-1.8-1.7c-0.5-0.7-0.9-1.5-1.2-2.4c-0.3-0.9-0.7-1.8-1-2.8l-9.5-26c-0.2-0.5-0.3-0.9-0.5-1.4
		c-0.2-0.5-0.3-0.9-0.4-1.5c-0.1-0.5-0.2-1-0.2-1.3c0-0.9,0.4-1.8,1.1-2.5c0.7-0.8,1.7-1.1,2.8-1.1c1.4,0,2.4,0.4,2.9,1.3
		S115.2,32.5,115.8,34.4z"/>
	<path class="st3" d="M153.4,29.8H164c2.8,0,5.1,0.3,7.1,0.8c2,0.5,3.8,1.5,5.4,2.9c4.2,3.6,6.3,9,6.3,16.3c0,2.4-0.2,4.6-0.6,6.6
		c-0.4,2-1.1,3.8-1.9,5.4c-0.9,1.6-2,3-3.4,4.3c-1.1,1-2.3,1.7-3.5,2.3c-1.3,0.6-2.6,1-4.1,1.2c-1.5,0.2-3.1,0.4-5,0.4h-10.6
		c-1.5,0-2.6-0.2-3.3-0.7c-0.7-0.4-1.2-1.1-1.5-1.9c-0.2-0.8-0.3-1.9-0.3-3.2V34.7c0-1.8,0.4-3,1.2-3.8
		C150.4,30.1,151.7,29.8,153.4,29.8z M156.6,36.2v27.2h6.2c1.3,0,2.4,0,3.2-0.1c0.8-0.1,1.6-0.3,2.4-0.5c0.8-0.3,1.5-0.7,2.1-1.2
		c2.7-2.3,4.1-6.3,4.1-11.9c0-4-0.6-6.9-1.8-8.9c-1.2-2-2.7-3.2-4.4-3.8c-1.8-0.5-3.9-0.8-6.3-0.8H156.6z"/>
	<path class="st3" d="M190.1,70.5c-1.1,0-2.1-0.4-2.9-1.1s-1.2-1.8-1.2-3.1c0-1.1,0.4-2.1,1.2-2.9c0.8-0.8,1.8-1.2,2.9-1.2
		s2.1,0.4,2.9,1.2s1.2,1.8,1.2,2.9c0,1.3-0.4,2.3-1.2,3S191.2,70.5,190.1,70.5z"/>
	<path class="st3" d="M229.4,61.3c0,0.9-0.3,1.9-0.8,3c-0.6,1.1-1.4,2.1-2.5,3c-1.1,1-2.6,1.7-4.3,2.3c-1.7,0.6-3.7,0.9-5.9,0.9
		c-4.6,0-8.2-1.3-10.8-4c-2.6-2.7-3.9-6.3-3.9-10.8c0-3.1,0.6-5.8,1.8-8.1c1.2-2.4,2.9-4.2,5.1-5.5s4.9-1.9,8-1.9
		c1.9,0,3.7,0.3,5.3,0.8c1.6,0.6,3,1.3,4.1,2.2c1.1,0.9,2,1.8,2.6,2.9c0.6,1,0.9,2,0.9,2.8c0,0.9-0.3,1.7-1,2.3
		c-0.7,0.6-1.5,0.9-2.4,0.9c-0.6,0-1.1-0.2-1.5-0.5c-0.4-0.3-0.9-0.8-1.4-1.5c-0.9-1.4-1.9-2.4-2.9-3.1c-1-0.7-2.3-1-3.8-1
		c-2.2,0-4,0.9-5.3,2.6c-1.3,1.7-2,4.1-2,7.1c0,1.4,0.2,2.7,0.5,3.9c0.3,1.2,0.8,2.2,1.5,3c0.7,0.8,1.4,1.5,2.4,1.9
		c0.9,0.4,2,0.6,3.1,0.6c1.5,0,2.8-0.3,3.8-1c1.1-0.7,2-1.8,2.8-3.2c0.5-0.8,0.9-1.5,1.5-2c0.5-0.5,1.2-0.7,1.9-0.7
		c0.9,0,1.7,0.3,2.3,1C229.1,59.8,229.4,60.5,229.4,61.3z"/>
	<path class="st3" d="M234.5,66V33.6c0-1.5,0.3-2.6,1-3.4c0.7-0.8,1.6-1.1,2.7-1.1c1.1,0,2,0.4,2.7,1.1c0.7,0.8,1,1.9,1,3.4V66
		c0,1.5-0.4,2.6-1.1,3.4c-0.7,0.8-1.6,1.1-2.7,1.1c-1.1,0-2-0.4-2.7-1.2S234.5,67.4,234.5,66z"/>
	<path class="st3" d="M269.1,66.3v-1c-0.9,1.1-1.8,2.1-2.8,2.8s-2.1,1.3-3.2,1.7c-1.2,0.4-2.5,0.6-4,0.6c-1.8,0-3.4-0.4-4.9-1.1
		c-1.4-0.7-2.5-1.8-3.3-3.1c-0.9-1.6-1.4-3.9-1.4-6.8V44.6c0-1.5,0.3-2.6,1-3.3c0.7-0.7,1.6-1.1,2.7-1.1c1.1,0,2,0.4,2.7,1.1
		c0.7,0.7,1,1.9,1,3.3v11.9c0,1.7,0.1,3.2,0.4,4.4c0.3,1.2,0.8,2.1,1.6,2.8c0.8,0.7,1.8,1,3.1,1c1.3,0,2.4-0.4,3.6-1.1
		c1.1-0.7,1.9-1.7,2.4-2.9c0.4-1.1,0.6-3.4,0.6-6.9v-9.1c0-1.5,0.3-2.6,1-3.3c0.7-0.7,1.6-1.1,2.7-1.1c1.1,0,2,0.4,2.7,1.1
		c0.7,0.7,1,1.9,1,3.3v21.6c0,1.4-0.3,2.5-1,3.2c-0.6,0.7-1.5,1.1-2.5,1.1c-1,0-1.9-0.4-2.5-1.1C269.4,68.7,269.1,67.6,269.1,66.3z"
		/>
	<path class="st3" d="M290.4,33.3v11.4c1.4-1.5,2.8-2.6,4.3-3.3c1.5-0.8,3.3-1.2,5.4-1.2c2.5,0,4.7,0.6,6.5,1.8
		c1.9,1.2,3.3,2.9,4.3,5.1c1,2.2,1.5,4.9,1.5,7.9c0,2.3-0.3,4.3-0.9,6.2s-1.4,3.5-2.5,4.9c-1.1,1.4-2.4,2.5-4,3.2s-3.3,1.1-5.2,1.1
		c-1.1,0-2.2-0.1-3.2-0.4s-1.9-0.6-2.6-1.1c-0.7-0.4-1.3-0.9-1.8-1.4c-0.5-0.5-1.2-1.2-2-2.1v0.7c0,1.4-0.3,2.5-1,3.2
		c-0.7,0.7-1.5,1.1-2.6,1.1c-1.1,0-1.9-0.4-2.5-1.1s-0.9-1.8-0.9-3.2V33.7c0-1.5,0.3-2.7,0.9-3.4c0.6-0.8,1.5-1.2,2.6-1.2
		c1.1,0,2,0.4,2.7,1.1C290.1,30.9,290.4,32,290.4,33.3z M290.8,55.5c0,3,0.7,5.3,2,6.8c1.4,1.6,3.1,2.4,5.3,2.4
		c1.9,0,3.5-0.8,4.9-2.4c1.4-1.6,2-4,2-7c0-2-0.3-3.7-0.8-5.1c-0.6-1.4-1.4-2.5-2.4-3.3c-1-0.8-2.3-1.2-3.6-1.2
		c-1.4,0-2.7,0.4-3.8,1.2c-1.1,0.8-2,1.9-2.6,3.4C291.1,51.7,290.8,53.5,290.8,55.5z"/>
</g>
</svg>
